<svg width="268" height="25" viewBox="0 0 268 25" fill="none" xmlns="http://www.w3.org/2000/svg">
<path d="M5.81526 19.3655H15.606V23.6924H0.186523V0.370819H5.81526V19.3655Z" fill="black"/>
<path d="M41.3843 19.3287H33.6837L32.3453 23.6924H26.3315L34.8938 0.352417H40.1742L48.7915 23.6924H42.741L41.3843 19.3287ZM35.0222 15.0018H40.0458L37.534 6.91621L35.0222 15.0018Z" fill="black"/>
<path d="M75.0286 14.3968H65.953V23.6924H60.3242V0.370819H75.927V4.71612H65.9346V10.0882H75.0103V14.3968H75.0286Z" fill="black"/>
<path d="M107.902 12.5083C107.902 14.2868 107.646 15.9002 107.151 17.312C106.656 18.7238 105.941 19.9338 105.042 20.9423C104.144 21.9323 103.062 22.7024 101.815 23.2341C100.568 23.7658 99.2117 24.0225 97.7266 24.0225C96.2232 24.0225 94.8481 23.7658 93.583 23.2341C92.3362 22.7024 91.2545 21.9507 90.3377 20.9423C89.4394 19.9522 88.7243 18.7421 88.2293 17.312C87.7342 15.9002 87.4775 14.2868 87.4775 12.5083V11.5549C87.4775 9.77647 87.7342 8.16303 88.2293 6.75126C88.7243 5.3395 89.421 4.12942 90.3377 3.12101C91.2361 2.13094 92.3179 1.36089 93.5646 0.829188C94.8114 0.297484 96.1865 0.0224609 97.7083 0.0224609C99.1934 0.0224609 100.568 0.297484 101.815 0.829188C103.062 1.36089 104.144 2.13094 105.042 3.12101C105.941 4.11108 106.656 5.32116 107.151 6.75126C107.664 8.18136 107.921 9.77647 107.921 11.5549V12.5083H107.902ZM102.164 11.5366C102.164 9.22643 101.779 7.46631 101.009 6.25623C100.238 5.04614 99.12 4.45944 97.6899 4.45944C96.1865 4.45944 95.0498 5.06448 94.3164 6.25623C93.5646 7.46631 93.1979 9.22643 93.1979 11.5366V12.5083C93.1979 14.8002 93.583 16.5603 94.3347 17.7887C95.0864 19.0171 96.2232 19.6405 97.7083 19.6405C99.1384 19.6405 100.238 19.0354 101.009 17.807C101.779 16.5786 102.164 14.8185 102.164 12.5267V11.5366Z" fill="black"/>
<path d="M129.317 15.4602H126.273V23.6924H120.645V0.370819H129.83C131.169 0.370819 132.397 0.517496 133.479 0.829184C134.561 1.14087 135.496 1.5809 136.266 2.16761C137.036 2.75432 137.622 3.4877 138.044 4.36776C138.447 5.24782 138.667 6.25622 138.667 7.4113C138.667 8.3097 138.576 9.11643 138.374 9.81314C138.191 10.5099 137.916 11.1332 137.549 11.6649C137.182 12.1966 136.761 12.655 136.266 13.04C135.771 13.4251 135.202 13.7734 134.597 14.0668L139.474 23.4724V23.7108H133.442L129.317 15.4602ZM126.273 11.1149H129.83C130.894 11.1149 131.7 10.8399 132.25 10.2715C132.782 9.70314 133.057 8.93308 133.057 7.92468C133.057 6.91628 132.782 6.12788 132.232 5.55951C131.682 4.99114 130.894 4.69778 129.83 4.69778H126.273V11.1149Z" fill="black"/>
<path d="M159.295 0.370819L164.502 16.5969L169.69 0.370819H177.098V23.7108H171.45V18.2654L172.001 7.11795L166.353 23.7291H162.632L156.966 7.11795L157.516 18.2837V23.7291H151.887V0.370819H159.295Z" fill="black"/>
<path d="M204.985 13.8101H196.148V19.3655H206.598V23.6924H190.519V0.370819H206.617V4.71612H196.129V9.6298H204.967V13.8101H204.985Z" fill="black"/>
<path d="M224.346 19.3655H234.136V23.6924H218.717V0.370819H224.346V19.3655Z" fill="black"/>
<path d="M259.915 19.3287H252.214L250.876 23.6924H244.862L253.424 0.352417H258.704L267.322 23.6924H261.271L259.915 19.3287ZM253.552 15.0018H258.576L256.064 6.91621L253.552 15.0018Z" fill="black"/>
</svg>
